PathFileType	4	(X/Y/Z)	/Users/itak/Documents/Research/Walk-IL/dataset/trc/00061_00006.trc
DataRate	CameraRate	NumFrames	NumMarkers	Units	OrigDataRate	OrigDataStartFrame	OrigNumFrames
100.000000	100.000000	4	53	mm	100.000000	198	793
Frame#	Time	RPSI			LPSI			L3			STRN			T10			C7			CLAV			RBAK			LBAK			LSHO			LUPA			LAEL			LAOL			LWTS			LWPS			LFRA			LIFD			LHPS			LHTS			RSHO			RUPA			RAEL			RAOL			RWTS			RWPS			RFRA			RIFD			RHTS			RHPS			RBHD			LFHD			RFHD			LBHD			LHIP			RHIP			RASI			LASI			LKNE			LTHI			LANK			LTIP			LTOE			LMT1			LMT5			LHEE			RKNE			RTHI			RANK			RTIP			RTOE			RMT1			RMT5			RHEE			
		X1	Y1	Z1	X2	Y2	Z2	X3	Y3	Z3	X4	Y4	Z4	X5	Y5	Z5	X6	Y6	Z6	X7	Y7	Z7	X8	Y8	Z8	X9	Y9	Z9	X10	Y10	Z10	X11	Y11	Z11	X12	Y12	Z12	X13	Y13	Z13	X14	Y14	Z14	X15	Y15	Z15	X16	Y16	Z16	X17	Y17	Z17	X18	Y18	Z18	X19	Y19	Z19	X20	Y20	Z20	X21	Y21	Z21	X22	Y22	Z22	X23	Y23	Z23	X24	Y24	Z24	X25	Y25	Z25	X26	Y26	Z26	X27	Y27	Z27	X28	Y28	Z28	X29	Y29	Z29	X30	Y30	Z30	X31	Y31	Z31	X32	Y32	Z32	X33	Y33	Z33	X34	Y34	Z34	X35	Y35	Z35	X36	Y36	Z36	X37	Y37	Z37	X38	Y38	Z38	X39	Y39	Z39	X40	Y40	Z40	X41	Y41	Z41	X42	Y42	Z42	X43	Y43	Z43	X44	Y44	Z44	X45	Y45	Z45	X46	Y46	Z46	X47	Y47	Z47	X48	Y48	Z48	X49	Y49	Z49	X50	Y50	Z50	X51	Y51	Z51	X52	Y52	Z52	X53	Y53	Z53	

199	1.98	577.0589599609375	1019.747619628906	906.4725341796875	456.2116394042969	1014.380676269531	784.8861694335938	508.2063903808594	1083.202880859375	836.5332641601562	716.7708740234375	1271.832641601562	684.0186767578125	491.8243713378906	1211.784301757812	830.3729248046875	545.8203735351562	1478.13818359375	798.0344848632812	694.385986328125	1386.599975585938	702.3866577148438	529.5486450195312	1339.050170898438	891.5673217773438	469.4407958984375	1445.501586914062	726.025634765625	519.5693359375	1450.035034179688	610.4296264648438	463.4763488769531	1329.142700195312	546.0436401367188	474.5958862304688	1120.662475585938	488.6754455566406	468.9973754882812	1090.067993164062	590.36669921875	653.1364135742188	929.1563110351562	469.8399353027344	580.392333984375	894.348388671875	445.6744995117188	518.2674560546875	1022.818908691406	457.4991760253906	733.0226440429688	759.8912353515625	464.2743835449219	635.3917846679688	828.5759887695312	426.6629638671875	696.550048828125	857.8394165039062	448.9097290039062	692.4425659179688	1437.80322265625	909.9694213867188	708.3323974609375	1373.882568359375	972.3650512695312	663.82275390625	1131.533203125	1053.923461914062	630.6959228515625	1098.204833984375	966.0575561523438	733.0350341796875	854.3814697265625	987.1654052734375	690.98046875	856.020751953125	1063.597290039062	668.1705932617188	1049.202392578125	1067.37158203125	684.7971801757812	669.2064819335938	993.131103515625	730.0799560546875	746.7979125976562	990.7564086914062	703.1683959960938	761.5562133789062	1061.365600585938	561.5281982421875	1651.2255859375	789.3247680664062	754.9324340820312	1688.517822265625	699.6317749023438	645.6754760742188	1696.393676757812	637.5936889648438	685.7427978515625	1635.9296875	847.4888916015625	467.7585754394531	948.0811157226562	648.174560546875	683.8145751953125	951.8243408203125	919.38623046875	758.9673461914062	973.6586303710938	820.1521606445312	587.3524780273438	958.4361572265625	613.988525390625	605.3477172851562	488.1078186035156	706.546142578125	541.5324096679688	621.2465209960938	674.0404052734375	527.297607421875	45.78679275512695	818.053955078125	559.2508544921875	248.5287322998047	758.8027954101562	720.2865600585938	38.78211212158203	744.7127685546875	694.2147827148438	37.20726776123047	811.2216186523438	606.1917724609375	39.80084991455078	741.7750244140625	511.1630859375	46.43140411376953	908.8563842773438	848.9588012695312	542.519287109375	743.6246337890625	793.5128173828125	799.755126953125	829.0277709960938	687.833984375	116.8104019165039	943.6638793945312	824.7418212890625	424.8789367675781	788.2715454101562	812.3143310546875	62.58162689208984	782.0240478515625	744.1760864257812	75.6485595703125	788.9987182617188	785.4182739257812	83.36737823486328	879.2294921875	618.486572265625	131.3090362548828	928.5035400390625	
200	1.99	585.271484375	1018.967041015625	901.3253784179688	462.1574401855469	1013.48388671875	781.1027221679688	514.7716674804688	1082.612060546875	831.9630126953125	721.3604736328125	1270.871215820312	676.7640380859375	498.0806579589844	1211.1376953125	825.759765625	551.9166870117188	1477.424682617188	792.5825805664062	699.3604736328125	1385.660522460938	695.3880615234375	536.5068969726562	1338.42333984375	886.3287353515625	474.6773681640625	1444.7841796875	721.3187866210938	523.6533813476562	1449.115112304688	605.2351684570312	467.0672912597656	1328.1796875	541.3309326171875	478.5293884277344	1119.785034179688	483.4472045898438	473.3971557617188	1088.956176757812	585.0961303710938	660.5372924804688	931.6258544921875	464.6587219238281	588.514404296875	895.5238647460938	440.1658935546875	523.8836059570312	1022.604553222656	452.2951354980469	743.4671630859375	763.8028564453125	459.23681640625	644.6682739257812	830.7482299804688	421.2544555664062	705.3123168945312	861.0894775390625	443.826416015625	699.6895751953125	1437.022827148438	902.91064453125	716.0458984375	1373.247436523438	965.2471923828125	671.1353759765625	1131.382446289062	1047.857177734375	636.9798583984375	1098.086791992188	960.412841796875	738.2813720703125	853.6954345703125	981.1103515625	697.015625	855.7705688476562	1057.953369140625	675.2091064453125	1049.05908203125	1061.490478515625	689.0186157226562	668.8027954101562	988.0814208984375	734.7634887695312	746.1503295898438	985.0210571289062	708.5230102539062	761.2283935546875	1055.86767578125	567.5142822265625	1650.213012695312	783.614990234375	759.9949340820312	1687.737670898438	692.0013427734375	650.0728759765625	1695.503051757812	631.1630859375	692.43603515625	1634.972534179688	840.5386352539062	471.3243713378906	947.4194946289062	644.0648803710938	691.9246215820312	951.0733032226562	911.90380859375	765.4869384765625	973.1112670898438	811.4905395507812	590.5072631835938	957.6024780273438	608.10791015625	606.9473876953125	487.1640625	703.9783935546875	543.8795166015625	620.65380859375	671.15673828125	527.419921875	45.83351898193359	818.1693115234375	560.1013793945312	248.1264038085938	757.8896484375	720.2689819335938	38.75424575805664	744.6751708984375	694.21484375	37.2044677734375	811.1634521484375	606.1709594726562	39.80282592773438	741.7803344726562	511.2798767089844	46.75259017944336	909.0540771484375	856.1600341796875	544.2710571289062	729.142333984375	800.8116455078125	800.0431518554688	818.3578491210938	713.8682250976562	107.4442901611328	920.5442504882812	836.4664306640625	424.4710693359375	771.1043701171875	833.8103637695312	62.06623077392578	752.8500366210938	765.6170654296875	73.09864044189453	762.7363891601562	810.0081176757812	79.04622650146484	851.6202392578125	643.8167724609375	120.6569442749023	908.4647827148438	
201	2	593.3800048828125	1018.113464355469	896.0177612304688	468.12060546875	1012.5458984375	777.1790771484375	521.3056030273438	1081.890014648438	827.2698364257812	725.9506225585938	1269.835815429688	669.5123291015625	504.3343505859375	1210.404296875	821.0983276367188	557.984130859375	1476.613037109375	787.0736694335938	704.312744140625	1384.64599609375	688.3837890625	543.43603515625	1337.699829101562	881.0208740234375	479.9157409667969	1443.969970703125	716.5709838867188	527.7392578125	1448.10302734375	600.0196533203125	470.6490783691406	1327.126586914062	536.6175537109375	482.4561462402344	1118.843017578125	478.1776123046875	477.803955078125	1087.776489257812	579.7855224609375	667.7201538085938	933.9375	459.4433898925781	596.421142578125	896.6473999023438	434.5838317871094	529.4083862304688	1022.317077636719	447.0271911621094	753.4909057617188	767.5171508789062	454.1449890136719	653.6360473632812	832.8352661132812	415.7786254882812	713.7938232421875	864.162841796875	438.7103881835938	706.87841796875	1436.159790039062	895.8229370117188	723.6981201171875	1372.5166015625	958.0900268554688	678.4507446289062	1131.118286132812	1041.71240234375	643.3358154296875	1097.81982421875	954.6760864257812	743.591552734375	852.9091186523438	975.0197143554688	703.1082153320312	855.4325561523438	1052.275146484375	682.2686767578125	1048.81396484375	1055.531494140625	693.307861328125	668.304443359375	983.073974609375	739.4996337890625	745.404052734375	979.2872924804688	713.978515625	760.8267211914062	1050.362915039062	573.5121459960938	1649.13427734375	777.81201171875	765.07177734375	1686.8427734375	684.3505249023438	654.5339965820312	1694.535278320312	624.6491088867188	699.1043701171875	1633.93115234375	833.5428466796875	474.9665222167969	946.7011108398438	639.8693237304688	699.8922119140625	950.2655029296875	904.377685546875	771.9190063476562	972.4483642578125	802.8350219726562	593.7152709960938	956.6959838867188	602.2054443359375	608.6444702148438	486.1578674316406	701.274658203125	546.2926635742188	619.9953002929688	668.1344604492188	527.5499877929688	45.88779830932617	818.3214721679688	561.0203247070312	247.6875762939453	756.9044189453125	720.2391357421875	38.74054718017578	744.6033935546875	694.2153930664062	37.20132064819336	811.1012573242188	606.143310546875	39.81431579589844	741.7913208007812	511.4971923828125	47.11754989624023	909.3223876953125	862.83056640625	545.7300415039062	715.2167358398438	807.8282470703125	800.1244506835938	807.9174194335938	739.5855712890625	98.4150390625	896.4857788085938	847.6609497070312	423.9789733886719	754.1845092773438	854.4361572265625	62.01160430908203	723.0741577148438	786.381591796875	70.94109344482422	735.8746337890625	833.9405517578125	75.09266662597656	823.1923217773438	668.964599609375	110.222526550293	887.4703369140625	
202	2.01	601.3140258789062	1017.192626953125	890.4530639648438	474.1011047363281	1011.57861328125	773.1092529296875	527.8146362304688	1081.0498046875	822.4356689453125	730.5520629882812	1268.733520507812	662.2608032226562	510.5904846191406	1209.583618164062	816.3787231445312	564.0178833007812	1475.709228515625	781.4977416992188	709.250244140625	1383.563110351562	681.3732299804688	550.3324584960938	1336.878295898438	875.6377563476562	485.1611633300781	1443.0673828125	711.7739868164062	531.8378295898438	1447.008422851562	594.7771606445312	474.2351379394531	1325.998046875	531.889892578125	486.3767700195312	1117.851928710938	472.8509826660156	482.2224731445312	1086.542358398438	574.4105834960938	674.6765747070312	936.0880737304688	454.1630249023438	604.0968627929688	897.7113037109375	428.9212036132812	534.83447265625	1021.96875	441.6743469238281	763.0946044921875	771.0226440429688	448.9840393066406	662.2954711914062	834.8306274414062	410.2361450195312	721.987060546875	867.0482788085938	433.5310363769531	714.0046997070312	1435.218994140625	888.7073974609375	731.2828369140625	1371.695068359375	950.8960571289062	685.763671875	1130.747314453125	1035.48974609375	649.7713623046875	1097.4189453125	948.8524169921875	748.980224609375	852.0327758789062	968.8848876953125	709.26513671875	855.0099487304688	1046.552978515625	689.3494873046875	1048.471923828125	1049.493896484375	697.685302734375	667.7217407226562	978.089599609375	744.2988891601562	744.5656127929688	973.5401000976562	719.5536499023438	760.3550415039062	1044.83837890625	579.521240234375	1647.994750976562	771.9149780273438	770.1666870117188	1685.837036132812	676.6755981445312	659.0571899414062	1693.49462890625	618.0565185546875	705.7368774414062	1632.812377929688	826.4964599609375	478.6805419921875	945.9234619140625	635.5831298828125	707.7470703125	949.4130859375	896.806640625	778.2686157226562	971.67626953125	794.1808471679688	596.9767456054688	955.7210083007812	596.2716674804688	610.4288330078125	485.0799255371094	698.4293823242188	548.7542114257812	619.2717895507812	664.9586791992188	527.69091796875	45.95222473144531	818.5291748046875	561.9916381835938	247.2142333984375	755.8433837890625	720.2030639648438	38.73612976074219	744.4978637695312	694.2278442382812	37.19164657592773	811.0423583984375	606.1134033203125	39.83454513549805	741.8174438476562	511.8179931640625	47.53633499145508	909.6708984375	869.0073852539062	546.8561401367188	701.9103393554688	814.6388549804688	800.0120239257812	797.7192993164062	764.875	89.807373046875	871.5255126953125	858.3207397460938	423.4043579101562	737.6179809570312	874.2152099609375	62.52935791015625	692.8597412109375	806.4871826171875	69.2581787109375	708.5033569335938	857.1549072265625	71.62351989746094	794.0723876953125	693.8053588867188	100.0683670043945	865.4956665039062	
